<svg width="512" height="512" viewBox="0 0 512 512" fill="none" xmlns="http://www.w3.org/2000/svg">
  <rect width="512" height="512" rx="120" fill="url(#bg)"/>
  <rect x="72" y="86" width="368" height="340" rx="40" fill="rgba(15,23,42,0.72)" stroke="rgba(148,163,184,0.2)" stroke-width="8"/>
  <rect x="104" y="130" width="190" height="24" rx="12" fill="#38BDF8"/>
  <rect x="104" y="176" width="304" height="18" rx="9" fill="#475569"/>
  <rect x="104" y="210" width="276" height="18" rx="9" fill="#475569"/>
  <rect x="104" y="244" width="232" height="18" rx="9" fill="#475569"/>
  <circle cx="360" cy="318" r="58" fill="#2563EB"/>
  <path d="M330 318H390" stroke="white" stroke-width="14" stroke-linecap="round"/>
  <path d="M360 288V348" stroke="white" stroke-width="14" stroke-linecap="round"/>
  <path d="M128 326C128 302.804 146.804 284 170 284H232C255.196 284 274 302.804 274 326V338C274 348.493 265.493 357 255 357H147C136.507 357 128 348.493 128 338V326Z" fill="#818CF8"/>
  <circle cx="178" cy="304" r="20" fill="#E2E8F0"/>
  <circle cx="223" cy="304" r="20" fill="#E2E8F0"/>
  <defs>
    <linearGradient id="bg" x1="42" y1="36" x2="452" y2="476" gradientUnits="userSpaceOnUse">
      <stop stop-color="#0F172A"/>
      <stop offset="0.5" stop-color="#1D4ED8"/>
      <stop offset="1" stop-color="#7C3AED"/>
    </linearGradient>
  </defs>
</svg>
